<svg id="Layer_1" height="512" viewBox="0 0 128 128" width="512" xmlns="http://www.w3.org/2000/svg" data-name="Layer 1"><path d="m56.808 95.824a16.588 16.588 0 0 1 -16.571-17.339c.395-8.952 8.13-15.837 17.091-15.837h7.537a33.725 33.725 0 0 0 32.772-25.763h-41.2a34.94 34.94 0 0 0 -34.937 34.94 34.94 34.94 0 0 0 34.94 34.94h34.94a10.941 10.941 0 0 0 -10.943-10.941z" fill="#ff8f00"/><path d="m32.333 59.345c-3.666 18.015 7.152 26.543 10.913 29.415h.007a16.5 16.5 0 0 1 -3.015-10.278c.395-8.952 8.13-15.837 17.091-15.837h7.537a33.725 33.725 0 0 0 32.771-25.76h-41.2s-20.731 5.888-24.104 22.46z" fill="#ff6319"/><path d="m22.4 63.945 19.107 9.028a17.26 17.26 0 0 1 15.851-10.324l-12.986-23.623a35 35 0 0 0 -21.972 24.919z" fill="#ff6319"/><path d="m56.438 106.764h4.706v-10.94h-4.336a16.553 16.553 0 0 1 -13.563-7.064l-8.527 10.422a34.781 34.781 0 0 0 21.72 7.582z" fill="#ff6319"/><path d="m75.477 41.149a2.543 2.543 0 1 0 2.543 2.543 2.546 2.546 0 0 0 -2.543-2.543z" fill="#fff4f4"/><path d="m57.358 62.648-11.482-20.886c-5.668 3.538-11.833 9.185-13.543 17.583a34.128 34.128 0 0 0 -.685 8.969l9.86 4.659a17.259 17.259 0 0 1 15.85-10.325z" fill="#ef3801"/><g fill="#630000"><path d="m30.039 50.685a1.746 1.746 0 0 0 1.322-.6q.249-.286.5-.567a1.75 1.75 0 1 0 -2.588-2.356q-.283.31-.558.627a1.75 1.75 0 0 0 1.32 2.9z"/><path d="m47.931 17.057h1.329a1.75 1.75 0 0 0 0-3.5h-1.329a1.75 1.75 0 0 0 0 3.5z"/><path d="m78.02 43.692a2.543 2.543 0 1 0 -2.543 2.543 2.546 2.546 0 0 0 2.543-2.543z"/><path d="m100.572 105.015h-7.58a12.7 12.7 0 0 0 -12.555-10.941h-23.629a14.838 14.838 0 0 1 -14.823-15.511c.32-7.251 6.277-13.238 13.623-14.059v6.2a1.75 1.75 0 0 0 3.5 0v-6.304h5.757c.634 0 1.264-.022 1.891-.055l1.229 5.792a1.75 1.75 0 0 0 3.424-.727l-1.151-5.424a35.389 35.389 0 0 0 7.042-1.825l2.889 6.289a1.75 1.75 0 1 0 3.18-1.461l-2.852-6.207a35.381 35.381 0 0 0 18.82-23.482 1.749 1.749 0 0 0 -1.7-2.163h-4.5a23.354 23.354 0 0 0 -23.252-21.58h-14.635a1.75 1.75 0 0 0 0 3.5h14.635a19.847 19.847 0 0 1 19.74 18.078h-4.574a14.972 14.972 0 0 0 -14.846-13.207h-30.325a1.75 1.75 0 0 0 0 3.5h30.325a11.464 11.464 0 0 1 11.309 9.707h-25.076a36.4 36.4 0 0 0 -21.761 7.147 1.75 1.75 0 0 0 2.078 2.818 33.175 33.175 0 0 1 6.822-3.885l9.036 16.438a1.75 1.75 0 0 0 3.067-1.687l-8.755-15.929a33.205 33.205 0 0 1 9.513-1.4h38.893a31.868 31.868 0 0 1 -17.762 19.638c-.038.014-.077.022-.114.039s-.079.048-.12.07a32.018 32.018 0 0 1 -12.47 2.516h-7.537a18.88 18.88 0 0 0 -16.662 9.74l-11.152-5.27a1.75 1.75 0 0 0 -1.5 3.164l11.286 5.332a17.88 17.88 0 0 0 -.813 4.542 18.207 18.207 0 0 0 2.589 10.238l-6.584 8.047a33.163 33.163 0 0 1 -6.656-41.717 1.75 1.75 0 1 0 -3.013-1.776 36.664 36.664 0 0 0 8.69 47.243c.033.032.061.068.1.1s.064.031.093.052a36.5 36.5 0 0 0 22.736 7.926h44.134a4.184 4.184 0 0 1 4.179 4.179 1.75 1.75 0 1 0 3.5 0 7.687 7.687 0 0 0 -7.683-7.685zm-63.337-6.146 6-7.331c.111.122.209.254.324.374a18.182 18.182 0 0 0 13.251 5.662h2.586v7.441h-2.958a33 33 0 0 1 -19.203-6.146zm25.659 6.145v-7.44h17.543a9.206 9.206 0 0 1 9.023 7.441z"/></g></svg>